/* XPM */
static char *_53caca72dd44224dafb9f857add6396hPSpzp0ebPEcA3xv[] = {
/* columns rows colors chars-per-pixel */
"32 32 4 1 ",
"  c None",
". c #2E222F",
"X c #3E3546",
"o c #625565",
/* pixels */
"                                ",
"                                ",
"                                ",
"                 ....           ",
"                .    .          ",
"               .                ",
"               .                ",
"              ....              ",
"             ......             ",
"           ..........           ",
"         ..............         ",
"        ........XXXXXXX.        ",
"       .....XXXXXXXXXXXX.       ",
"       ....XXXXXXXXXooXX.       ",
"      ....XXXXXXXXXXXooXX.      ",
"      ....XXXXXXXXXXXXoXX.      ",
"     .....XXXXXXXXXXXXXXXX.     ",
"     .....XXXXXXXXXXXXXXXX.     ",
"     .....XXXXXXXXXXXXXXXX.     ",
"     .....XXXXXXXXXXXXXXXX.     ",
"     .....XXXXXXXXXXXXXXXX.     ",
"     .....XXXXXXXXXXXXXXXX.     ",
"      ....XXXXXXXXXXXXXXX.      ",
"      .....XXXXXXXXXXXXXX.      ",
"       .....XXXXXXXXXXXX.       ",
"       ......XXXXXXXXXXX.       ",
"        ......XXXXXXXXX.        ",
"         ......XXXXXX..         ",
"           ..........           ",
"             ......             ",
"                                ",
"                                "
};
