/* XPM */
static char *_501a0627f28443b9671e4ab1139b7057S0KjaHTAsMbSIrq[] = {
/* columns rows colors chars-per-pixel */
"32 32 14 1 ",
"  c None",
". c #2E222F",
"X c #45293F",
"o c #3E3546",
"O c #165A4C",
"+ c #831C5D",
"@ c #C32454",
"# c #F04F78",
"$ c #239063",
"% c #1EBC73",
"& c #D5E04B",
"* c #F68181",
"= c #FCA790",
"- c #FBFF86",
/* pixels */
"                                ",
"                                ",
"                                ",
"                                ",
"                                ",
"                  XXX           ",
"                 X==+XX         ",
"                X@@=+++X        ",
"               X@@@*+++X        ",
"              X@@@@*+++X        ",
"             X@@@@@*+++X        ",
"            X@@@@@@*+++X        ",
"           X@@@@o@@*+++X        ",
"          X@@@@@.@@*+++X        ",
"         X@@o@@@@@@*+++X        ",
"        X@@@.@@@@@@*+++X        ",
"       X@@@@@@@@@@@*+++X        ",
"      X@@@@@@@@o@@@*+++X        ",
"     O-&@@@@@@@.@@@*+++X        ",
"     O$-@@@@@@@@@@@*+++X        ",
"     O%%-&@@@@@@@@@#+++X        ",
"     O%%$--&@@@@@@@#+++X        ",
"      O%%%$---&@@@@#+++X        ",
"       O%%%%%$-----&&&&X        ",
"        OO%%%%%%%%%$$$$X        ",
"          OOOO%%%%%$$$$X        ",
"              OOOOOOOOO         ",
"                                ",
"                                ",
"                                ",
"                                ",
"                                "
};
