/* XPM */
static char *_9c128db539c46e189eeed43e59b0088CRmadlb7ldtnlQV5[] = {
/* columns rows colors chars-per-pixel */
"32 32 7 1 ",
"  c None",
". c #2E222F",
"X c #9E4539",
"o c #F04F78",
"O c #F79617",
"+ c #F9C22B",
"@ c #F9F08E",
/* pixels */
"                                ",
"                                ",
"                                ",
"                                ",
"               XX               ",
"              X++X              ",
"             X++++X             ",
"             X@+++X             ",
"            X@@++++X            ",
"           X@@@++++X            ",
"           X@@++++++X           ",
"          XO@@++++++OX          ",
"    XXXXXXXO@+++++++OXXXXXX     ",
"    X+++++O+++++++++OO+++++X    ",
"    X+++++++.++++++.+++++++X    ",
"    X+++++++.++++++.+++++++X    ",
"     X++++++.++++++.++++++X     ",
"      X++++o.+.++.+.o++++X      ",
"       X+++++++..+++++++X       ",
"        X++++++++++++++X        ",
"        X++++++++++++++X        ",
"        X++++++++++++++X        ",
"        X+++OOOOOOOO+++X        ",
"       X+++++OOOOOO+++++X       ",
"       X++++OOOOOOOO++++X       ",
"       X+++OOOXXXXOOO+++X       ",
"       X+OOOOX    XOOOO+X       ",
"       XOOOOX      XOOOOX       ",
"        XXXX        XXXX        ",
"                                ",
"                                ",
"                                "
};
