/* XPM */
static char *_77ea4d6260c40198b92cc5a8b32d1a16VA5tLI53Rq8wUxA[] = {
/* columns rows colors chars-per-pixel */
"32 32 7 1 ",
"  c None",
". c #3E3546",
"X c #694F62",
"o c #625565",
"O c #7F708A",
"+ c #9BABB2",
"@ c #C7DCD0",
/* pixels */
"                                ",
"                                ",
"                                ",
"                                ",
"                                ",
"                                ",
"                                ",
"              ooooooooo         ",
"             o+++++++++o        ",
"           oo+++++++++++o       ",
"          oOOOO++++++++++o      ",
"         oOOOOOO+++++++++o      ",
"        oOOOOOOO+++++++@@o      ",
"        oOO+OOOO+++++++@OOo     ",
"        oOO++OO+++++++@@OO.     ",
"       o+OO+++++++++++@OOOX.    ",
"      o++O+++++++@@@@@OOOOX.    ",
"     o+++++++++++OOOOOOOOOX.    ",
"     o++++++OOOOOOOOOOOOOXX.    ",
"     o++++++OOOOOOOOOOOOXXX.    ",
"     o+++++++++++OOOOO+XXXX.    ",
"     oO+++++++++++++++XXXXX.    ",
"      .O@++++++++++++OXXXX.     ",
"      .OO@++++++++++OOXXX.      ",
"       .XO@@@@OOOOOOOOXX.       ",
"       .XXOOOOOOOOOOOXX.        ",
"        .XXOXXOOOOOOO..         ",
"         .XXXXOOOOO..           ",
"          .XXXXOO..             ",
"           ......               ",
"                                ",
"                                "
};
